<svg width="9" height="10" viewBox="0 0 9 10" fill="none" xmlns="http://www.w3.org/2000/svg">
<path d="M2.10366 4.82341H6.27543L4.99857 3.28978C4.93887 3.21794 4.91014 3.12533 4.91872 3.03232C4.92729 2.93931 4.97247 2.85351 5.0443 2.79381C5.11613 2.7341 5.20874 2.70538 5.30176 2.71395C5.39477 2.72253 5.48056 2.7677 5.54027 2.83953L7.29903 4.95004C7.31086 4.96683 7.32144 4.98446 7.33068 5.0028C7.33068 5.02039 7.33068 5.03094 7.35531 5.04853C7.37125 5.08886 7.3796 5.1318 7.37993 5.17516C7.3796 5.21853 7.37125 5.26146 7.35531 5.30179C7.35531 5.31938 7.35531 5.32993 7.33068 5.34752C7.32144 5.36586 7.31086 5.3835 7.29903 5.40028L5.54027 7.51079C5.5072 7.5505 5.46578 7.58243 5.41897 7.60432C5.37216 7.6262 5.3211 7.63751 5.26942 7.63742C5.18723 7.63758 5.10758 7.60896 5.0443 7.55652C5.00868 7.52699 4.97924 7.49072 4.95766 7.4498C4.93608 7.40887 4.92278 7.36409 4.91854 7.31802C4.91429 7.27195 4.91917 7.22549 4.93291 7.18131C4.94664 7.13713 4.96895 7.09609 4.99857 7.06055L6.27543 5.52691H2.10366C2.01037 5.52691 1.9209 5.48985 1.85493 5.42389C1.78897 5.35792 1.75191 5.26845 1.75191 5.17516C1.75191 5.08187 1.78897 4.9924 1.85493 4.92644C1.9209 4.86047 2.01037 4.82341 2.10366 4.82341Z" fill="white"/>
</svg>
