<svg width="10" height="10" viewBox="0 0 10 10" fill="none" xmlns="http://www.w3.org/2000/svg">
<path d="M7.51586 4.82341H3.34409L4.62095 3.28978C4.68066 3.21794 4.70938 3.12533 4.7008 3.03232C4.69223 2.93931 4.64706 2.85351 4.57522 2.79381C4.50339 2.7341 4.41078 2.70538 4.31777 2.71395C4.22475 2.72253 4.13896 2.7677 4.07925 2.83953L2.3205 4.95004C2.30866 4.96683 2.29808 4.98446 2.28884 5.0028C2.28884 5.02039 2.28884 5.03094 2.26422 5.04853C2.24827 5.08886 2.23992 5.1318 2.23959 5.17516C2.23992 5.21853 2.24827 5.26146 2.26422 5.30179C2.26422 5.31938 2.26422 5.32993 2.28884 5.34752C2.29808 5.36586 2.30866 5.3835 2.3205 5.40028L4.07925 7.51079C4.11233 7.5505 4.15374 7.58243 4.20055 7.60432C4.24737 7.6262 4.29843 7.63751 4.3501 7.63742C4.43229 7.63758 4.51194 7.60896 4.57522 7.55652C4.61084 7.52699 4.64028 7.49072 4.66186 7.4498C4.68344 7.40887 4.69674 7.36409 4.70099 7.31802C4.70523 7.27195 4.70035 7.22549 4.68662 7.18131C4.67288 7.13713 4.65057 7.09609 4.62095 7.06055L3.34409 5.52691H7.51586C7.60915 5.52691 7.69862 5.48985 7.76459 5.42389C7.83055 5.35792 7.86761 5.26845 7.86761 5.17516C7.86761 5.08187 7.83055 4.9924 7.76459 4.92644C7.69862 4.86047 7.60915 4.82341 7.51586 4.82341Z" fill="#F53838"/>
</svg>
