<svg width="20" height="21" viewBox="0 0 20 21" fill="none" xmlns="http://www.w3.org/2000/svg">
<g filter="url(#filter0_d_781_126)">
<circle cx="9.93779" cy="6.6699" r="4.72752" fill="#F53838"/>
</g>
<path d="M9.93768 1.94238C7.3267 1.94238 5.21014 4.05894 5.21014 6.66992C5.21014 9.2809 7.3267 11.3975 9.93768 11.3975C12.5487 11.3975 14.6652 9.2809 14.6652 6.66992C14.6652 4.05894 12.5487 1.94238 9.93768 1.94238ZM11.0575 5.20931H10.3469C10.2627 5.20931 10.1691 5.32011 10.1691 5.46735V5.98049H11.058L10.9236 6.71227H10.1691V8.9091H9.33049V6.71227H8.56965V5.98049H9.33049V5.55008C9.33049 4.93255 9.75892 4.43074 10.3469 4.43074H11.0575V5.20931Z" fill="white"/>
<defs>
<filter id="filter0_d_781_126" x="0.145049" y="0.535378" width="19.5855" height="19.5855" filterUnits="userSpaceOnUse" color-interpolation-filters="sRGB">
<feFlood flood-opacity="0" result="BackgroundImageFix"/>
<feColorMatrix in="SourceAlpha" type="matrix" values="0 0 0 0 0 0 0 0 0 0 0 0 0 0 0 0 0 0 127 0" result="hardAlpha"/>
<feOffset dy="3.65821"/>
<feGaussianBlur stdDeviation="2.53261"/>
<feColorMatrix type="matrix" values="0 0 0 0 0.0658854 0 0 0 0 0.0730469 0 0 0 0 0.1375 0 0 0 0.08 0"/>
<feBlend mode="normal" in2="BackgroundImageFix" result="effect1_dropShadow_781_126"/>
<feBlend mode="normal" in="SourceGraphic" in2="effect1_dropShadow_781_126" result="shape"/>
</filter>
</defs>
</svg>
