<svg width="20" height="21" viewBox="0 0 20 21" fill="none" xmlns="http://www.w3.org/2000/svg">
<g filter="url(#filter0_d_781_132)">
<circle cx="10.104" cy="6.6699" r="4.72752" fill="#F53838"/>
</g>
<path d="M11.5813 6.66992C11.5813 7.06174 11.4256 7.43751 11.1486 7.71457C10.8715 7.99163 10.4958 8.14728 10.1039 8.14728C9.71212 8.14728 9.33635 7.99163 9.05929 7.71457C8.78224 7.43751 8.62659 7.06174 8.62659 6.66992C8.62659 6.58571 8.63545 6.50347 8.65072 6.42369H8.13413V8.39202C8.13413 8.52893 8.24494 8.63973 8.38184 8.63973H11.8265C11.8921 8.6396 11.955 8.61344 12.0014 8.567C12.0477 8.52056 12.0737 8.45763 12.0737 8.39202V6.42369H11.5572C11.5724 6.50347 11.5813 6.58571 11.5813 6.66992ZM10.1039 7.65482C10.2333 7.65479 10.3614 7.62928 10.4809 7.57974C10.6004 7.5302 10.709 7.45761 10.8005 7.36611C10.8919 7.2746 10.9645 7.16598 11.0139 7.04645C11.0634 6.92691 11.0889 6.7988 11.0888 6.66943C11.0888 6.54006 11.0633 6.41196 11.0138 6.29245C10.9642 6.17293 10.8916 6.06435 10.8001 5.97289C10.7086 5.88144 10.6 5.8089 10.4805 5.75942C10.3609 5.70994 10.2328 5.68449 10.1034 5.68452C9.84217 5.68459 9.59162 5.78844 9.40692 5.97324C9.22221 6.15804 9.11848 6.40864 9.11855 6.66992C9.11861 6.9312 9.22247 7.18175 9.40726 7.36645C9.59206 7.55116 9.84266 7.65489 10.1039 7.65482ZM11.2858 5.63577H11.8763C11.9155 5.63577 11.9531 5.62022 11.9809 5.59253C12.0087 5.56484 12.0244 5.52726 12.0245 5.48804V4.89759C12.0245 4.85827 12.0089 4.82057 11.9811 4.79277C11.9533 4.76498 11.9156 4.74936 11.8763 4.74936H11.2858C11.2465 4.74936 11.2088 4.76498 11.181 4.79277C11.1532 4.82057 11.1376 4.85827 11.1376 4.89759V5.48804C11.1381 5.56929 11.2046 5.63577 11.2858 5.63577ZM10.1039 1.94238C8.85012 1.94238 7.64765 2.44046 6.76107 3.32705C5.87448 4.21363 5.3764 5.4161 5.3764 6.66992C5.3764 7.92374 5.87448 9.12621 6.76107 10.0128C7.64765 10.8994 8.85012 11.3975 10.1039 11.3975C10.7248 11.3975 11.3395 11.2752 11.9131 11.0376C12.4867 10.8 13.0078 10.4518 13.4468 10.0128C13.8858 9.5738 14.234 9.05264 14.4716 8.47907C14.7092 7.9055 14.8315 7.29075 14.8315 6.66992C14.8315 6.04909 14.7092 5.43434 14.4716 4.86077C14.234 4.2872 13.8858 3.76604 13.4468 3.32705C13.0078 2.88805 12.4867 2.53983 11.9131 2.30225C11.3395 2.06466 10.7248 1.94238 10.1039 1.94238ZM12.5662 8.58507C12.5662 8.88595 12.32 9.13218 12.0191 9.13218H8.1888C7.88791 9.13218 7.64168 8.88595 7.64168 8.58507V4.75478C7.64168 4.45389 7.88791 4.20766 8.1888 4.20766H12.0191C12.32 4.20766 12.5662 4.45389 12.5662 4.75478V8.58507Z" fill="white"/>
<defs>
<filter id="filter0_d_781_132" x="0.311308" y="0.535378" width="19.5855" height="19.5855" filterUnits="userSpaceOnUse" color-interpolation-filters="sRGB">
<feFlood flood-opacity="0" result="BackgroundImageFix"/>
<feColorMatrix in="SourceAlpha" type="matrix" values="0 0 0 0 0 0 0 0 0 0 0 0 0 0 0 0 0 0 127 0" result="hardAlpha"/>
<feOffset dy="3.65821"/>
<feGaussianBlur stdDeviation="2.53261"/>
<feColorMatrix type="matrix" values="0 0 0 0 0.0658854 0 0 0 0 0.0730469 0 0 0 0 0.1375 0 0 0 0.08 0"/>
<feBlend mode="normal" in2="BackgroundImageFix" result="effect1_dropShadow_781_132"/>
<feBlend mode="normal" in="SourceGraphic" in2="effect1_dropShadow_781_132" result="shape"/>
</filter>
</defs>
</svg>
