<svg width="18" height="18" viewBox="0 0 18 18" fill="none" xmlns="http://www.w3.org/2000/svg">
<circle cx="9.0536" cy="9.17518" r="8.16063" stroke="#F53838" stroke-width="0.562802"/>
<path d="M11.5159 8.82341H7.34409L8.62095 7.28978C8.68066 7.21794 8.70938 7.12533 8.7008 7.03232C8.69223 6.93931 8.64706 6.85351 8.57522 6.79381C8.50339 6.7341 8.41078 6.70538 8.31777 6.71395C8.22475 6.72253 8.13896 6.7677 8.07925 6.83953L6.3205 8.95004C6.30866 8.96683 6.29808 8.98446 6.28884 9.0028C6.28884 9.02039 6.28884 9.03094 6.26422 9.04853C6.24827 9.08886 6.23992 9.1318 6.23959 9.17516C6.23992 9.21853 6.24827 9.26146 6.26422 9.30179C6.26422 9.31938 6.26422 9.32993 6.28884 9.34752C6.29808 9.36586 6.30866 9.3835 6.3205 9.40028L8.07925 11.5108C8.11233 11.5505 8.15374 11.5824 8.20055 11.6043C8.24737 11.6262 8.29843 11.6375 8.3501 11.6374C8.43229 11.6376 8.51194 11.609 8.57522 11.5565C8.61084 11.527 8.64028 11.4907 8.66186 11.4498C8.68344 11.4089 8.69674 11.3641 8.70099 11.318C8.70523 11.272 8.70035 11.2255 8.68662 11.1813C8.67288 11.1371 8.65057 11.0961 8.62095 11.0605L7.34409 9.52691H11.5159C11.6092 9.52691 11.6986 9.48985 11.7646 9.42389C11.8306 9.35792 11.8676 9.26845 11.8676 9.17516C11.8676 9.08187 11.8306 8.9924 11.7646 8.92644C11.6986 8.86047 11.6092 8.82341 11.5159 8.82341Z" fill="#F53838"/>
</svg>
