<svg width="17" height="16" viewBox="0 0 17 16" fill="none" xmlns="http://www.w3.org/2000/svg">
<rect x="0.860565" y="0.406433" width="15.4771" height="15.4771" rx="7.73853" fill="#FFECEC"/>
<path d="M10.5688 7.30071C10.5688 7.04203 10.5179 6.78588 10.4189 6.5469C10.3199 6.30791 10.1748 6.09076 9.99188 5.90785C9.80897 5.72493 9.59182 5.57984 9.35283 5.48084C9.11384 5.38185 8.8577 5.3309 8.59902 5.3309C8.34034 5.3309 8.08419 5.38185 7.84521 5.48084C7.60622 5.57984 7.38907 5.72493 7.20615 5.90785C7.02324 6.09076 6.87815 6.30791 6.77915 6.5469C6.68016 6.78588 6.62921 7.04203 6.62921 7.30071C6.62921 7.69101 6.74459 8.05402 6.94016 8.36018H6.93791C7.60201 9.39996 8.59902 10.9589 8.59902 10.9589L10.2601 8.36018H10.2582C10.4609 8.04399 10.5687 7.67631 10.5688 7.30071ZM8.59902 8.14491C8.37512 8.14491 8.1604 8.05597 8.00208 7.89765C7.84376 7.73933 7.75482 7.52461 7.75482 7.30071C7.75482 7.07681 7.84376 6.86209 8.00208 6.70377C8.1604 6.54545 8.37512 6.45651 8.59902 6.45651C8.82291 6.45651 9.03764 6.54545 9.19596 6.70377C9.35428 6.86209 9.44322 7.07681 9.44322 7.30071C9.44322 7.52461 9.35428 7.73933 9.19596 7.89765C9.03764 8.05597 8.82291 8.14491 8.59902 8.14491Z" fill="#F53838"/>
</svg>
