<svg width="43" height="11" viewBox="0 0 43 11" fill="none" xmlns="http://www.w3.org/2000/svg">
<path d="M13.4473 6.7912C13.4098 6.7912 13.3779 6.77807 13.3517 6.7518C13.3254 6.72554 13.3123 6.69365 13.3123 6.65613V2.98666C13.3123 2.94914 13.3254 2.91725 13.3517 2.89098C13.3779 2.86472 13.4098 2.85158 13.4473 2.85158H13.9708C14.0083 2.85158 14.0402 2.86472 14.0664 2.89098C14.0927 2.91725 14.1058 2.94914 14.1058 2.98666V6.12146H15.8899C15.9312 6.12146 15.9649 6.1346 15.9912 6.16086C16.0175 6.18712 16.0306 6.22089 16.0306 6.26216V6.65613C16.0306 6.69365 16.0175 6.72554 15.9912 6.7518C15.9649 6.77807 15.9312 6.7912 15.8899 6.7912H13.4473ZM17.3593 6.84748C17.1642 6.84748 16.9878 6.80996 16.8302 6.73492C16.6726 6.65613 16.547 6.55295 16.4532 6.42538C16.3631 6.29406 16.3181 6.14773 16.3181 5.98639C16.3181 5.72375 16.4231 5.51551 16.6332 5.36168C16.8471 5.2041 17.1285 5.09904 17.4775 5.04651L18.2485 4.93395V4.81576C18.2485 4.65818 18.2091 4.53624 18.1303 4.44994C18.0515 4.36365 17.9164 4.3205 17.7251 4.3205C17.59 4.3205 17.4793 4.34864 17.393 4.40492C17.3105 4.45745 17.2486 4.52873 17.2073 4.61878C17.1773 4.66756 17.1341 4.69195 17.0779 4.69195H16.6332C16.592 4.69195 16.5601 4.68069 16.5376 4.65818C16.5188 4.63567 16.5094 4.60565 16.5094 4.56813C16.5132 4.5081 16.5376 4.43493 16.5826 4.34864C16.6276 4.26234 16.6989 4.1798 16.7965 4.10101C16.894 4.01846 17.0197 3.94905 17.1735 3.89277C17.3274 3.83649 17.5131 3.80835 17.7307 3.80835C17.9671 3.80835 18.1659 3.83836 18.3273 3.8984C18.4924 3.95468 18.6237 4.03159 18.7212 4.12915C18.8188 4.2267 18.8901 4.34113 18.9351 4.47245C18.9801 4.60378 19.0026 4.7426 19.0026 4.88893V6.65613C19.0026 6.69365 18.9895 6.72554 18.9632 6.7518C18.937 6.77807 18.9051 6.7912 18.8676 6.7912H18.4117C18.3704 6.7912 18.3367 6.77807 18.3104 6.7518C18.2879 6.72554 18.2766 6.69365 18.2766 6.65613V6.43663C18.2279 6.50792 18.1622 6.57546 18.0796 6.63924C17.9971 6.69927 17.8958 6.74993 17.7757 6.7912C17.6594 6.82872 17.5206 6.84748 17.3593 6.84748ZM17.5506 6.31282C17.6819 6.31282 17.8001 6.28468 17.9052 6.2284C18.014 6.17212 18.0984 6.08582 18.1584 5.96951C18.2222 5.84944 18.2541 5.69936 18.2541 5.51927V5.40108L17.6913 5.49113C17.4699 5.52489 17.3049 5.5793 17.196 5.65434C17.0872 5.72938 17.0328 5.8213 17.0328 5.93011C17.0328 6.01266 17.0572 6.08394 17.106 6.14398C17.1585 6.20026 17.2242 6.2434 17.303 6.27342C17.3818 6.29969 17.4643 6.31282 17.5506 6.31282ZM20.8334 6.84748C20.6083 6.84748 20.415 6.82121 20.2537 6.76869C20.0961 6.71616 19.9667 6.6505 19.8654 6.57171C19.7641 6.49291 19.689 6.41412 19.6402 6.33533C19.5915 6.25654 19.5652 6.19088 19.5614 6.13835C19.5577 6.09708 19.5689 6.06518 19.5952 6.04267C19.6252 6.01641 19.6571 6.00328 19.6909 6.00328H20.1355C20.1505 6.00328 20.1636 6.00515 20.1749 6.0089C20.1862 6.01266 20.2012 6.02391 20.2199 6.04267C20.2687 6.08394 20.3194 6.12709 20.3719 6.17212C20.4282 6.21714 20.4938 6.25654 20.5689 6.29031C20.6439 6.32032 20.7377 6.33533 20.8503 6.33533C20.9966 6.33533 21.1185 6.30719 21.2161 6.25091C21.3174 6.19088 21.368 6.10646 21.368 5.99765C21.368 5.91886 21.3455 5.85507 21.3005 5.8063C21.2592 5.75752 21.1804 5.71437 21.0641 5.67685C20.9478 5.63558 20.7827 5.59243 20.5689 5.54741C20.3587 5.49863 20.1843 5.43672 20.0455 5.36168C19.9066 5.28664 19.8034 5.19284 19.7359 5.08028C19.6684 4.96772 19.6346 4.8364 19.6346 4.68632C19.6346 4.53999 19.6778 4.40117 19.7641 4.26985C19.8541 4.13477 19.9854 4.02409 20.158 3.93779C20.3344 3.8515 20.552 3.80835 20.8109 3.80835C21.0135 3.80835 21.1898 3.83461 21.3399 3.88714C21.49 3.93592 21.6138 3.99783 21.7113 4.07287C21.8127 4.14791 21.8896 4.22482 21.9421 4.30361C21.9946 4.37865 22.0228 4.44431 22.0265 4.50059C22.0303 4.54187 22.019 4.57563 21.9927 4.6019C21.9665 4.62441 21.9365 4.63567 21.9027 4.63567H21.4862C21.4675 4.63567 21.4506 4.63192 21.4356 4.62441C21.4206 4.61691 21.4056 4.60753 21.3906 4.59627C21.3493 4.55875 21.3043 4.51935 21.2555 4.47808C21.2067 4.43681 21.1467 4.40117 21.0754 4.37115C21.0078 4.33738 20.9178 4.3205 20.8052 4.3205C20.6627 4.3205 20.5539 4.35239 20.4788 4.41617C20.4038 4.47621 20.3663 4.55312 20.3663 4.64692C20.3663 4.71071 20.3831 4.76699 20.4169 4.81576C20.4544 4.86079 20.5276 4.90394 20.6364 4.94521C20.7452 4.98648 20.9103 5.02963 21.1317 5.07465C21.383 5.11968 21.5819 5.18721 21.7282 5.27726C21.8783 5.36356 21.9834 5.46486 22.0434 5.58117C22.1072 5.69373 22.1391 5.81943 22.1391 5.95825C22.1391 6.12709 22.0884 6.27905 21.9871 6.41412C21.8896 6.54919 21.7432 6.65613 21.5481 6.73492C21.3568 6.80996 21.1185 6.84748 20.8334 6.84748ZM22.8607 6.7912C22.8232 6.7912 22.7913 6.77807 22.7651 6.7518C22.7388 6.72554 22.7257 6.69365 22.7257 6.65613V2.93038C22.7257 2.89286 22.7388 2.86097 22.7651 2.8347C22.7913 2.80844 22.8232 2.7953 22.8607 2.7953H23.3279C23.3654 2.7953 23.3973 2.80844 23.4235 2.8347C23.4498 2.86097 23.4629 2.89286 23.4629 2.93038V6.65613C23.4629 6.69365 23.4498 6.72554 23.4235 6.7518C23.3973 6.77807 23.3654 6.7912 23.3279 6.7912H22.8607ZM25.4702 6.84748C25.0537 6.84748 24.7235 6.72741 24.4796 6.48729C24.2357 6.24716 24.1044 5.90572 24.0857 5.46299C24.0819 5.42547 24.08 5.37857 24.08 5.32229C24.08 5.26225 24.0819 5.21535 24.0857 5.18159C24.1007 4.90018 24.1645 4.6563 24.277 4.44994C24.3933 4.24358 24.5528 4.086 24.7554 3.97719C24.958 3.86463 25.1963 3.80835 25.4702 3.80835C25.7741 3.80835 26.0292 3.87213 26.2356 3.9997C26.4419 4.12352 26.5976 4.29799 26.7027 4.52311C26.8078 4.74448 26.8603 5.00149 26.8603 5.29415V5.41233C26.8603 5.44985 26.8471 5.48175 26.8209 5.50801C26.7946 5.53427 26.7609 5.54741 26.7196 5.54741H24.8511C24.8511 5.54741 24.8511 5.55303 24.8511 5.56429C24.8511 5.57555 24.8511 5.58493 24.8511 5.59243C24.8548 5.72375 24.8792 5.84569 24.9242 5.95825C24.973 6.06706 25.0424 6.15523 25.1325 6.22277C25.2263 6.2903 25.337 6.32407 25.4645 6.32407C25.5696 6.32407 25.6578 6.30907 25.7291 6.27905C25.8003 6.24528 25.8585 6.20776 25.9035 6.16649C25.9485 6.12522 25.9804 6.09145 25.9992 6.06518C26.033 6.02016 26.0592 5.9939 26.078 5.98639C26.1005 5.97514 26.1324 5.96951 26.1737 5.96951H26.6577C26.6952 5.96951 26.7252 5.98076 26.7477 6.00328C26.774 6.02579 26.7852 6.05393 26.7815 6.0877C26.7777 6.14773 26.7458 6.22089 26.6858 6.30719C26.6295 6.39349 26.547 6.47791 26.4382 6.56045C26.3294 6.64299 26.1924 6.71241 26.0273 6.76869C25.866 6.82121 25.6803 6.84748 25.4702 6.84748ZM24.8511 5.07465H26.0949V5.05777C26.0949 4.91144 26.0705 4.78387 26.0217 4.67506C25.9729 4.56625 25.9016 4.47996 25.8078 4.41617C25.714 4.35239 25.6015 4.3205 25.4702 4.3205C25.3388 4.3205 25.2263 4.35239 25.1325 4.41617C25.0387 4.47996 24.9674 4.56625 24.9186 4.67506C24.8736 4.78387 24.8511 4.91144 24.8511 5.05777V5.07465ZM28.5664 6.84748C28.3413 6.84748 28.1481 6.82121 27.9867 6.76869C27.8291 6.71616 27.6997 6.6505 27.5984 6.57171C27.4971 6.49291 27.422 6.41412 27.3733 6.33533C27.3245 6.25654 27.2982 6.19088 27.2945 6.13835C27.2907 6.09708 27.302 6.06518 27.3282 6.04267C27.3583 6.01641 27.3902 6.00328 27.4239 6.00328H27.8685C27.8835 6.00328 27.8967 6.00515 27.9079 6.0089C27.9192 6.01266 27.9342 6.02391 27.953 6.04267C28.0017 6.08394 28.0524 6.12709 28.1049 6.17212C28.1612 6.21714 28.2268 6.25654 28.3019 6.29031C28.3769 6.32032 28.4707 6.33533 28.5833 6.33533C28.7296 6.33533 28.8516 6.30719 28.9491 6.25091C29.0504 6.19088 29.1011 6.10646 29.1011 5.99765C29.1011 5.91886 29.0786 5.85507 29.0335 5.8063C28.9923 5.75752 28.9135 5.71437 28.7972 5.67685C28.6808 5.63558 28.5158 5.59243 28.3019 5.54741C28.0918 5.49863 27.9173 5.43672 27.7785 5.36168C27.6397 5.28664 27.5365 5.19284 27.4689 5.08028C27.4014 4.96772 27.3676 4.8364 27.3676 4.68632C27.3676 4.53999 27.4108 4.40117 27.4971 4.26985C27.5871 4.13477 27.7185 4.02409 27.891 3.93779C28.0674 3.8515 28.285 3.80835 28.5439 3.80835C28.7465 3.80835 28.9228 3.83461 29.0729 3.88714C29.223 3.93592 29.3468 3.99783 29.4444 4.07287C29.5457 4.14791 29.6226 4.22482 29.6751 4.30361C29.7277 4.37865 29.7558 4.44431 29.7595 4.50059C29.7633 4.54187 29.752 4.57563 29.7258 4.6019C29.6995 4.62441 29.6695 4.63567 29.6357 4.63567H29.2193C29.2005 4.63567 29.1836 4.63192 29.1686 4.62441C29.1536 4.61691 29.1386 4.60753 29.1236 4.59627C29.0823 4.55875 29.0373 4.51935 28.9885 4.47808C28.9397 4.43681 28.8797 4.40117 28.8084 4.37115C28.7409 4.33738 28.6508 4.3205 28.5383 4.3205C28.3957 4.3205 28.2869 4.35239 28.2118 4.41617C28.1368 4.47621 28.0993 4.55312 28.0993 4.64692C28.0993 4.71071 28.1162 4.76699 28.1499 4.81576C28.1875 4.86079 28.2606 4.90394 28.3694 4.94521C28.4782 4.98648 28.6433 5.02963 28.8647 5.07465C29.1161 5.11968 29.3149 5.18721 29.4613 5.27726C29.6113 5.36356 29.7164 5.46486 29.7764 5.58117C29.8402 5.69373 29.8721 5.81943 29.8721 5.95825C29.8721 6.12709 29.8215 6.27905 29.7202 6.41412C29.6226 6.54919 29.4763 6.65613 29.2812 6.73492C29.0898 6.80996 28.8516 6.84748 28.5664 6.84748ZM31.6012 6.7912C31.5374 6.7912 31.4867 6.77431 31.4492 6.74055C31.4117 6.70678 31.3854 6.66738 31.3704 6.62236L30.2223 3.02043C30.2148 3.00167 30.2111 2.98478 30.2111 2.96977C30.2111 2.93976 30.2223 2.91349 30.2448 2.89098C30.2711 2.86472 30.3011 2.85158 30.3349 2.85158H31.0328C31.0928 2.85158 31.1397 2.86847 31.1735 2.90224C31.2072 2.93601 31.2279 2.9679 31.2354 2.99791L32.0289 5.59806L32.8281 2.99791C32.8393 2.9679 32.86 2.93601 32.89 2.90224C32.9238 2.86847 32.9707 2.85158 33.0307 2.85158H33.7286C33.7623 2.85158 33.7905 2.86472 33.813 2.89098C33.8393 2.91349 33.8524 2.93976 33.8524 2.96977C33.8524 2.98478 33.8486 3.00167 33.8411 3.02043L32.693 6.62236C32.678 6.66738 32.6517 6.70678 32.6142 6.74055C32.5805 6.77431 32.5298 6.7912 32.4623 6.7912H31.6012ZM34.5185 6.7912C34.4772 6.7912 34.4435 6.77807 34.4172 6.7518C34.391 6.72554 34.3778 6.69177 34.3778 6.6505V2.99229C34.3778 2.95101 34.391 2.91725 34.4172 2.89098C34.4435 2.86472 34.4772 2.85158 34.5185 2.85158H36.0944C36.4058 2.85158 36.6759 2.90036 36.9048 2.99791C37.1374 3.09171 37.3175 3.23429 37.4451 3.42564C37.5764 3.617 37.6421 3.859 37.6421 4.15166C37.6421 4.44056 37.5764 4.67882 37.4451 4.86642C37.3175 5.05402 37.1374 5.19284 36.9048 5.28289C36.6759 5.37294 36.4058 5.41796 36.0944 5.41796H35.4246V6.6505C35.4246 6.69177 35.4096 6.72554 35.3796 6.7518C35.3533 6.77807 35.3196 6.7912 35.2783 6.7912H34.5185ZM35.4077 4.6413H36.0662C36.2276 4.6413 36.3551 4.60002 36.4489 4.51748C36.5465 4.43493 36.5953 4.30924 36.5953 4.1404C36.5953 3.99783 36.554 3.87776 36.4714 3.78021C36.3889 3.68266 36.2538 3.63388 36.0662 3.63388H35.4077V4.6413ZM38.3218 6.7912C38.2806 6.7912 38.2468 6.77807 38.2205 6.7518C38.1943 6.72554 38.1811 6.69177 38.1811 6.6505V2.99229C38.1811 2.95101 38.1943 2.91725 38.2205 2.89098C38.2468 2.86472 38.2806 2.85158 38.3218 2.85158H38.9184C38.9822 2.85158 39.0272 2.86659 39.0535 2.89661C39.0835 2.92287 39.1023 2.94351 39.1098 2.95852L40.483 5.1253V2.99229C40.483 2.95101 40.4961 2.91725 40.5224 2.89098C40.5487 2.86472 40.5824 2.85158 40.6237 2.85158H41.2991C41.3403 2.85158 41.3741 2.86472 41.4004 2.89098C41.4266 2.91725 41.4398 2.95101 41.4398 2.99229V6.6505C41.4398 6.68802 41.4266 6.72179 41.4004 6.7518C41.3741 6.77807 41.3403 6.7912 41.2991 6.7912H40.6969C40.6368 6.7912 40.5918 6.77619 40.5618 6.74617C40.5355 6.71616 40.5186 6.69552 40.5111 6.68427L39.1379 4.6019V6.6505C39.1379 6.69177 39.1248 6.72554 39.0985 6.7518C39.0722 6.77807 39.0385 6.7912 38.9972 6.7912H38.3218Z" fill="#0B132A"/>
<path d="M8.97503 3.91062L8.9689 3.90449C8.9684 3.90415 8.96801 3.90369 8.96776 3.90316L5.13483 0.0701294L1.30193 3.90306C1.30149 3.9035 1.3008 3.90439 1.3008 3.90439L1.29447 3.91052C0.708372 4.49991 0.336095 5.26831 0.236826 6.09358C0.137557 6.91884 0.316991 7.75362 0.746604 8.4652C1.17622 9.17679 1.83136 9.72436 2.60788 10.0208C3.38439 10.3173 4.23773 10.3457 5.03222 10.1014C5.09908 10.081 5.17053 10.081 5.2374 10.1014C6.03183 10.3456 6.88511 10.3172 7.66158 10.0207C8.43805 9.72416 9.09312 9.17664 9.52271 8.4651C9.95229 7.75357 10.1317 6.91884 10.0325 6.09363C9.93329 5.26841 9.56106 4.50001 8.97503 3.91062ZM2.66486 6.43818C2.6462 6.45684 2.6314 6.47901 2.62131 6.50336C2.61122 6.52771 2.60602 6.55385 2.60602 6.58022C2.61284 7.25672 2.80403 7.91852 3.159 8.49445C3.16706 8.50752 3.17079 8.52281 3.16965 8.5381C3.1685 8.5534 3.16255 8.56795 3.15263 8.57968C3.14272 8.59141 3.12935 8.59967 3.11444 8.60333C3.09954 8.607 3.08385 8.60586 3.06964 8.60007C2.80278 8.48782 2.56035 8.32465 2.35592 8.1197C1.93695 7.70066 1.70142 7.13245 1.70104 6.53989C1.70065 5.94733 1.93546 5.37882 2.35389 4.95927L5.13483 2.17859L7.91562 4.95927C8.33412 5.37877 8.56901 5.94728 8.56861 6.53989C8.56826 7.13245 8.33269 7.70066 7.91369 8.1197C7.70924 8.32465 7.46683 8.48782 7.20003 8.60007C7.18577 8.60586 7.17008 8.607 7.15519 8.60333C7.14029 8.59967 7.12693 8.59136 7.11698 8.57968C7.10708 8.56795 7.10109 8.5534 7.09995 8.53805C7.09882 8.52276 7.10253 8.50747 7.11059 8.4944C7.46565 7.91852 7.65693 7.25672 7.66386 6.58022C7.66386 6.55385 7.65861 6.52771 7.64847 6.50332C7.63832 6.47892 7.62347 6.45679 7.60477 6.43814L6.28943 5.04297C6.27632 5.03204 6.25984 5.02605 6.24276 5.02605C6.22574 5.02605 6.20921 5.03204 6.19614 5.04297C6.18303 5.05386 6.17422 5.06906 6.17115 5.08583C6.16808 5.10261 6.171 5.11988 6.17942 5.13473C6.69027 6.05918 6.25098 7.38703 5.51841 8.1197L5.51455 8.12356C5.41344 8.22359 5.27694 8.27966 5.13473 8.27961C4.99249 8.27956 4.85603 8.22339 4.75499 8.12332L4.75144 8.1197C4.0186 7.38703 3.57954 6.05933 4.09047 5.13493C4.09887 5.12008 4.1018 5.10281 4.09874 5.08603C4.09569 5.06925 4.08685 5.05406 4.07376 5.04317C4.06066 5.03223 4.04416 5.02625 4.02711 5.02625C4.01006 5.02625 3.99355 5.03223 3.98046 5.04317L2.66486 6.43818Z" fill="#F53838"/>
</svg>
