<svg width="42" height="47" viewBox="0 0 42 47" fill="none" xmlns="http://www.w3.org/2000/svg">
<path fill-rule="evenodd" clip-rule="evenodd" d="M14.639 11.4483C14.8238 11.0471 15.0403 10.7354 15.1833 10.5711C15.1861 10.9587 15.1264 11.3063 15.0339 11.6085C15.3186 11.7458 15.6144 11.938 15.897 12.2033C15.6792 12.1967 15.3034 12.144 14.8833 12.0072C14.6897 12.4341 14.445 12.7289 14.2845 12.8662C14.2954 12.5069 14.371 12.1625 14.4772 11.8518C14.1771 11.7189 13.873 11.5405 13.602 11.3045C13.8116 11.2799 14.1942 11.3005 14.639 11.4483Z" fill="url(#paint0_linear_766_611)"/>
<path fill-rule="evenodd" clip-rule="evenodd" d="M13.1779 7.42901C13.3009 7.16199 13.445 6.95456 13.5402 6.84519C13.5421 7.10314 13.5023 7.33453 13.4408 7.53563C13.6302 7.62703 13.8272 7.75502 14.0153 7.93164C13.8704 7.92725 13.6202 7.89213 13.3405 7.80104C13.2117 8.08526 13.0487 8.28151 12.9419 8.37287C12.9491 8.13367 12.9995 7.90443 13.0702 7.69764C12.8705 7.60912 12.6681 7.49043 12.4877 7.33336C12.6272 7.317 12.8818 7.33067 13.1779 7.42901Z" fill="url(#paint1_linear_766_611)"/>
<path fill-rule="evenodd" clip-rule="evenodd" d="M9.22428 3.43403C9.40908 3.03287 9.62554 2.72124 9.76858 2.55692C9.77138 2.94446 9.71166 3.29209 9.61918 3.59422C9.90387 3.73152 10.1997 3.9238 10.4824 4.18914C10.2646 4.18255 9.88872 4.12979 9.46862 3.99294C9.275 4.41993 9.03023 4.71475 8.86977 4.852C8.88064 4.49265 8.95626 4.14826 9.06247 3.8376C8.76241 3.70462 8.45838 3.5263 8.18732 3.29033C8.39699 3.26575 8.77949 3.28628 9.22428 3.43403Z" fill="url(#paint2_linear_766_611)"/>
<path fill-rule="evenodd" clip-rule="evenodd" d="M8.59785 12.429C8.86975 11.8387 9.18823 11.3802 9.39869 11.1384C9.40282 11.7087 9.31493 12.2202 9.17884 12.6647C9.59755 12.8667 10.0327 13.1495 10.4484 13.5398C10.128 13.5301 9.57522 13.4525 8.95733 13.2513C8.67247 13.8794 8.3124 14.3131 8.07633 14.515C8.09233 13.9864 8.20356 13.4798 8.35979 13.0228C7.91819 12.8271 7.47074 12.5647 7.07181 12.2174C7.38036 12.1812 7.94328 12.2115 8.59785 12.429Z" fill="url(#paint3_linear_766_611)"/>
<circle cx="10.2337" cy="8.38909" r="0.238214" transform="rotate(21.3865 10.2337 8.38909)" fill="#2F235A"/>
<circle cx="16.1319" cy="5.39388" r="0.238214" transform="rotate(21.3865 16.1319 5.39388)" fill="#FE9076"/>
<circle cx="4.80966" cy="6.69515" r="0.238214" transform="rotate(21.3865 4.80966 6.69515)" fill="#FFA400"/>
<circle cx="9.92497" cy="16.2868" r="0.238214" transform="rotate(21.3865 9.92497 16.2868)" fill="#23BB86"/>
<path d="M15.9509 4.2553C15.7192 3.37016 14.8827 1.34581 13.3907 0.329517" stroke="#FE9076" stroke-width="0.207343" stroke-linecap="round"/>
<path d="M4.10675 5.73417C3.53008 5.02379 1.9321 3.52572 0.153565 3.21645" stroke="#FFA400" stroke-width="0.207343" stroke-linecap="round"/>
<path d="M8.91129 16.633C8.40024 16.8194 7.11373 17.4133 6.05612 18.2978" stroke="#23BB86" stroke-width="0.207343" stroke-linecap="round"/>
<path fill-rule="evenodd" clip-rule="evenodd" d="M26.4439 11.4482C26.2591 11.0471 26.0427 10.7354 25.8996 10.5711C25.8968 10.9587 25.9565 11.3063 26.049 11.6084C25.7644 11.7457 25.4686 11.938 25.1859 12.2033C25.4037 12.1967 25.7795 12.144 26.1996 12.0072C26.3932 12.4341 26.638 12.7289 26.7984 12.8662C26.7876 12.5069 26.7119 12.1625 26.6057 11.8518C26.9058 11.7188 27.2099 11.5405 27.481 11.3045C27.2713 11.2799 26.8888 11.3005 26.4439 11.4482Z" fill="url(#paint4_linear_766_611)"/>
<path fill-rule="evenodd" clip-rule="evenodd" d="M27.9049 7.42901C27.7818 7.16198 27.6378 6.95455 27.5426 6.84517C27.5407 7.10313 27.5804 7.33453 27.642 7.53564C27.4525 7.62703 27.2556 7.75502 27.0674 7.93165C27.2124 7.92726 27.4626 7.89214 27.7422 7.80104C27.8711 8.08525 28.034 8.28149 28.1408 8.37285C28.1336 8.13366 28.0833 7.90442 28.0126 7.69764C28.2123 7.60913 28.4147 7.49043 28.5951 7.33337C28.4555 7.31701 28.2009 7.33067 27.9049 7.42901Z" fill="url(#paint5_linear_766_611)"/>
<path fill-rule="evenodd" clip-rule="evenodd" d="M31.8588 3.43382C31.674 3.03265 31.4575 2.72102 31.3145 2.55671C31.3117 2.94425 31.3714 3.29187 31.4639 3.594C31.1792 3.73131 30.8833 3.92359 30.6007 4.18893C30.8185 4.18234 31.1944 4.12958 31.6145 3.99273C31.8081 4.41972 32.0528 4.71454 32.2133 4.85179C32.2024 4.49244 32.1268 4.14805 32.0206 3.83739C32.3207 3.70441 32.6247 3.52608 32.8958 3.29012C32.6861 3.26554 32.3036 3.28607 31.8588 3.43382Z" fill="url(#paint6_linear_766_611)"/>
<path fill-rule="evenodd" clip-rule="evenodd" d="M32.485 12.4289C32.2131 11.8387 31.8946 11.3801 31.6842 11.1384C31.68 11.7086 31.7679 12.2201 31.904 12.6647C31.4853 12.8667 31.0502 13.1495 30.6344 13.5397C30.9548 13.5301 31.5076 13.4525 32.1255 13.2512C32.4104 13.8794 32.7705 14.3131 33.0065 14.515C32.9905 13.9864 32.8793 13.4797 32.7231 13.0227C33.1647 12.8271 33.6121 12.5647 34.011 12.2174C33.7025 12.1812 33.1396 12.2114 32.485 12.4289Z" fill="url(#paint7_linear_766_611)"/>
<circle cx="0.238214" cy="0.238214" r="0.238214" transform="matrix(-0.931142 0.364658 0.364658 0.931142 30.9841 8.08043)" fill="#2F235A"/>
<circle cx="0.238214" cy="0.238214" r="0.238214" transform="matrix(-0.931142 0.364658 0.364658 0.931142 25.0858 5.08522)" fill="#FE9076"/>
<circle cx="0.238214" cy="0.238214" r="0.238214" transform="matrix(-0.931142 0.364658 0.364658 0.931142 36.4081 6.38647)" fill="#FFA400"/>
<circle cx="0.238214" cy="0.238214" r="0.238214" transform="matrix(-0.931142 0.364658 0.364658 0.931142 31.2928 15.9781)" fill="#23BB86"/>
<path d="M25.1318 4.25532C25.3636 3.37018 26.2001 1.34582 27.6921 0.329533" stroke="#FE9076" stroke-width="0.207343" stroke-linecap="round"/>
<path d="M36.9761 5.73417C37.5528 5.02379 39.1507 3.52572 40.9293 3.21645" stroke="#FFA400" stroke-width="0.207343" stroke-linecap="round"/>
<path d="M32.1716 16.633C32.6826 16.8194 33.9691 17.4133 35.0267 18.2978" stroke="#23BB86" stroke-width="0.207343" stroke-linecap="round"/>
<rect x="7.54514" y="29.3882" width="25.284" height="17.4779" fill="url(#paint8_linear_766_611)"/>
<mask id="mask0_766_611" style="mask-type:alpha" maskUnits="userSpaceOnUse" x="7" y="29" width="26" height="18">
<rect x="7.54514" y="29.3882" width="25.284" height="17.4779" fill="#C4C4C4"/>
</mask>
<g mask="url(#mask0_766_611)">
<path d="M8.74157 28.9431L25.9582 28.9431L22.0669 35.7L4.85019 35.7L8.74157 28.9431Z" fill="black" fill-opacity="0.07"/>
<rect x="24.7393" y="29.3881" width="25.284" height="17.4779" fill="url(#paint9_linear_766_611)"/>
</g>
<path d="M7.52294 29.3882L24.7396 29.3882L21.4139 34.9381L4.1972 34.9381L7.52294 29.3882Z" fill="url(#paint10_linear_766_611)"/>
<mask id="mask1_766_611" style="mask-type:alpha" maskUnits="userSpaceOnUse" x="24" y="29" width="9" height="18">
<rect x="24.7393" y="29.3882" width="8.08969" height="17.4779" fill="#C4C4C4"/>
</mask>
<g mask="url(#mask1_766_611)">
<path d="M31.8443 29.3591L23.7419 29.3591L27.5491 35.7488L35.6514 35.7488L31.8443 29.3591Z" fill="black" fill-opacity="0.07"/>
</g>
<path d="M32.8417 29.3882L24.7394 29.3882L28.0651 34.9381L36.1675 34.9381L32.8417 29.3882Z" fill="url(#paint11_linear_766_611)"/>
<circle cx="15.9669" cy="24.9365" r="2.38933" fill="url(#paint12_linear_766_611)"/>
<circle cx="25.1487" cy="19.0458" r="2.30882" fill="url(#paint13_linear_766_611)"/>
<circle cx="16.4943" cy="16.0677" r="1.86184" fill="url(#paint14_linear_766_611)"/>
<circle cx="21.6643" cy="11.8159" r="1.68424" fill="url(#paint15_linear_766_611)"/>
<circle cx="18.3562" cy="7.13812" r="1.30471" fill="url(#paint16_linear_766_611)"/>
<circle cx="20.598" cy="18.5816" r="0.464312" fill="#FFA800" fill-opacity="0.23"/>
<circle cx="28.3199" cy="14.6701" r="0.464312" fill="#FFA800" fill-opacity="0.23"/>
<circle cx="28.7844" cy="7.13809" r="0.464312" fill="#FFA800" fill-opacity="0.23"/>
<circle cx="13.1134" cy="7.97852" r="0.464312" fill="#FFA800" fill-opacity="0.23"/>
<circle cx="22.5676" cy="25.9677" r="0.464312" fill="#FFA800" fill-opacity="0.23"/>
<circle cx="10.9166" cy="17.6529" r="0.464312" fill="#FFA800" fill-opacity="0.23"/>
<path d="M32.8888 29.4709H7.52504L3.62979 5.45387H37.5662L32.8888 29.4709Z" fill="url(#paint17_linear_766_611)"/>
<defs>
<linearGradient id="paint0_linear_766_611" x1="15.1131" y1="10.8254" x2="14.2692" y2="12.9803" gradientUnits="userSpaceOnUse">
<stop stop-color="#FFE89E"/>
<stop offset="1" stop-color="#FFBF1A"/>
</linearGradient>
<linearGradient id="paint1_linear_766_611" x1="13.4935" y1="7.01446" x2="12.9318" y2="8.44885" gradientUnits="userSpaceOnUse">
<stop stop-color="#FFE89E"/>
<stop offset="1" stop-color="#FFBF1A"/>
</linearGradient>
<linearGradient id="paint2_linear_766_611" x1="9.69849" y1="2.81122" x2="8.85457" y2="4.96615" gradientUnits="userSpaceOnUse">
<stop stop-color="#FFE89E"/>
<stop offset="1" stop-color="#FFBF1A"/>
</linearGradient>
<linearGradient id="paint3_linear_766_611" x1="9.29516" y1="11.5124" x2="8.05355" y2="14.6828" gradientUnits="userSpaceOnUse">
<stop stop-color="#FFE89E"/>
<stop offset="1" stop-color="#FFBF1A"/>
</linearGradient>
<linearGradient id="paint4_linear_766_611" x1="25.9698" y1="10.8254" x2="26.8137" y2="12.9803" gradientUnits="userSpaceOnUse">
<stop stop-color="#FFE89E"/>
<stop offset="1" stop-color="#FFBF1A"/>
</linearGradient>
<linearGradient id="paint5_linear_766_611" x1="27.5892" y1="7.01445" x2="28.1509" y2="8.44884" gradientUnits="userSpaceOnUse">
<stop stop-color="#FFE89E"/>
<stop offset="1" stop-color="#FFBF1A"/>
</linearGradient>
<linearGradient id="paint6_linear_766_611" x1="31.3846" y1="2.81101" x2="32.2285" y2="4.96594" gradientUnits="userSpaceOnUse">
<stop stop-color="#FFE89E"/>
<stop offset="1" stop-color="#FFBF1A"/>
</linearGradient>
<linearGradient id="paint7_linear_766_611" x1="31.7877" y1="11.5123" x2="33.0293" y2="14.6828" gradientUnits="userSpaceOnUse">
<stop stop-color="#FFE89E"/>
<stop offset="1" stop-color="#FFBF1A"/>
</linearGradient>
<linearGradient id="paint8_linear_766_611" x1="15.9912" y1="26.1523" x2="5.91413" y2="53.9074" gradientUnits="userSpaceOnUse">
<stop stop-color="#FFD481"/>
<stop offset="1" stop-color="#FA620C"/>
</linearGradient>
<linearGradient id="paint9_linear_766_611" x1="11.859" y1="28.2796" x2="42.4417" y2="60.9614" gradientUnits="userSpaceOnUse">
<stop stop-color="#FFD481"/>
<stop offset="0.83311" stop-color="#FA620C"/>
</linearGradient>
<linearGradient id="paint10_linear_766_611" x1="7.87725" y1="27.4046" x2="7.05903" y2="39.2298" gradientUnits="userSpaceOnUse">
<stop stop-color="#FFD481"/>
<stop offset="1" stop-color="#FA620C"/>
</linearGradient>
<linearGradient id="paint11_linear_766_611" x1="34.1202" y1="27.4046" x2="35.5755" y2="39.1054" gradientUnits="userSpaceOnUse">
<stop stop-color="#FFD481"/>
<stop offset="1" stop-color="#FA620C"/>
</linearGradient>
<linearGradient id="paint12_linear_766_611" x1="16.1478" y1="21.7586" x2="15.6933" y2="28.2079" gradientUnits="userSpaceOnUse">
<stop stop-color="#FF9F81"/>
<stop offset="1" stop-color="#F53838"/>
</linearGradient>
<linearGradient id="paint13_linear_766_611" x1="25.3235" y1="15.975" x2="24.8844" y2="22.2071" gradientUnits="userSpaceOnUse">
<stop stop-color="#FF9F81"/>
<stop offset="1" stop-color="#F53838"/>
</linearGradient>
<linearGradient id="paint14_linear_766_611" x1="16.6353" y1="13.5914" x2="16.2812" y2="18.6169" gradientUnits="userSpaceOnUse">
<stop stop-color="#FF9F81"/>
<stop offset="1" stop-color="#F53838"/>
</linearGradient>
<linearGradient id="paint15_linear_766_611" x1="21.7919" y1="9.57578" x2="21.4715" y2="14.122" gradientUnits="userSpaceOnUse">
<stop stop-color="#FF9F81"/>
<stop offset="1" stop-color="#F53838"/>
</linearGradient>
<linearGradient id="paint16_linear_766_611" x1="18.455" y1="5.4028" x2="18.2068" y2="8.92455" gradientUnits="userSpaceOnUse">
<stop stop-color="#FF9F81"/>
<stop offset="1" stop-color="#F53838"/>
</linearGradient>
<linearGradient id="paint17_linear_766_611" x1="20.3191" y1="5.45387" x2="20.3191" y2="56.4786" gradientUnits="userSpaceOnUse">
<stop stop-color="white" stop-opacity="0"/>
<stop offset="1" stop-color="#FE9277"/>
</linearGradient>
</defs>
</svg>
