<svg width="43" height="42" viewBox="0 0 43 42" fill="none" xmlns="http://www.w3.org/2000/svg">
<g filter="url(#filter0_d_781_108)">
<circle cx="21.5658" cy="17.1752" r="8.44203" fill="#F53838"/>
<circle cx="21.5658" cy="17.1752" r="8.16063" stroke="#F53838" stroke-width="0.562802"/>
</g>
<path d="M19.1037 16.8234H23.2754L21.9986 15.2898C21.9389 15.2179 21.9101 15.1253 21.9187 15.0323C21.9273 14.9393 21.9725 14.8535 22.0443 14.7938C22.1161 14.7341 22.2087 14.7054 22.3018 14.714C22.3948 14.7225 22.4806 14.7677 22.5403 14.8395L24.299 16.95C24.3109 16.9668 24.3214 16.9845 24.3307 17.0028C24.3307 17.0204 24.3307 17.0309 24.3553 17.0485C24.3712 17.0889 24.3796 17.1318 24.3799 17.1752C24.3796 17.2185 24.3712 17.2615 24.3553 17.3018C24.3553 17.3194 24.3553 17.3299 24.3307 17.3475C24.3214 17.3659 24.3109 17.3835 24.299 17.4003L22.5403 19.5108C22.5072 19.5505 22.4658 19.5824 22.419 19.6043C22.3722 19.6262 22.3211 19.6375 22.2694 19.6374C22.1872 19.6376 22.1076 19.609 22.0443 19.5565C22.0087 19.527 21.9792 19.4907 21.9577 19.4498C21.9361 19.4089 21.9228 19.3641 21.9185 19.318C21.9143 19.272 21.9192 19.2255 21.9329 19.1813C21.9466 19.1371 21.969 19.0961 21.9986 19.0605L23.2754 17.5269H19.1037C19.0104 17.5269 18.9209 17.4899 18.8549 17.4239C18.789 17.3579 18.7519 17.2685 18.7519 17.1752C18.7519 17.0819 18.789 16.9924 18.8549 16.9264C18.9209 16.8605 19.0104 16.8234 19.1037 16.8234Z" fill="white"/>
<defs>
<filter id="filter0_d_781_108" x="0.742105" y="0.291125" width="41.6474" height="41.6473" filterUnits="userSpaceOnUse" color-interpolation-filters="sRGB">
<feFlood flood-opacity="0" result="BackgroundImageFix"/>
<feColorMatrix in="SourceAlpha" type="matrix" values="0 0 0 0 0 0 0 0 0 0 0 0 0 0 0 0 0 0 127 0" result="hardAlpha"/>
<feOffset dy="3.93961"/>
<feGaussianBlur stdDeviation="6.19082"/>
<feColorMatrix type="matrix" values="0 0 0 0 0.0561111 0 0 0 0 0.0777333 0 0 0 0 0.133333 0 0 0 0.08 0"/>
<feBlend mode="normal" in2="BackgroundImageFix" result="effect1_dropShadow_781_108"/>
<feBlend mode="normal" in="SourceGraphic" in2="effect1_dropShadow_781_108" result="shape"/>
</filter>
</defs>
</svg>
