<svg width="8" height="8" viewBox="0 0 8 8" fill="none" xmlns="http://www.w3.org/2000/svg">
<path d="M3.86393 5.00018C3.82699 5.00025 3.7904 4.99303 3.75626 4.97893C3.72212 4.96483 3.69109 4.94413 3.66498 4.91801L2.47127 3.72402C2.44438 3.69809 2.42292 3.66705 2.40815 3.63273C2.39338 3.59841 2.38559 3.56149 2.38524 3.52412C2.38488 3.48676 2.39198 3.4497 2.4061 3.41511C2.42023 3.38051 2.4411 3.34908 2.4675 3.32264C2.49391 3.2962 2.52531 3.27528 2.55988 3.26111C2.59446 3.24694 2.6315 3.23979 2.66887 3.24009C2.70623 3.24039 2.74316 3.24812 2.77751 3.26285C2.81185 3.27757 2.84291 3.29898 2.86889 3.32584L3.86364 4.32059L5.65476 2.53004C5.70753 2.47724 5.77911 2.44756 5.85375 2.44753C5.9284 2.44751 6 2.47713 6.0528 2.5299C6.10561 2.58266 6.13528 2.65424 6.13531 2.72889C6.13534 2.80354 6.10571 2.87514 6.05294 2.92794L4.06288 4.91801C4.03676 4.94413 4.00574 4.96483 3.97159 4.97893C3.93745 4.99303 3.90086 5.00025 3.86393 5.00018Z" fill="#2FAB73"/>
</svg>
