<svg width="17" height="16" viewBox="0 0 17 16" fill="none" xmlns="http://www.w3.org/2000/svg">
<rect x="0.812836" y="0.406433" width="15.4771" height="15.4771" rx="7.73853" fill="#FFECEC"/>
<g clip-path="url(#clip0_758_327)">
<path d="M10.8027 5.61234H6.30032C6.15106 5.61234 6.00791 5.67163 5.90236 5.77718C5.79681 5.88272 5.73752 6.02587 5.73752 6.17514V7.30074C5.73752 7.45001 5.79681 7.59316 5.90236 7.6987C6.00791 7.80425 6.15106 7.86354 6.30032 7.86354H10.8027C10.952 7.86354 11.0952 7.80425 11.2007 7.6987C11.3062 7.59316 11.3655 7.45001 11.3655 7.30074V6.17514C11.3655 6.02587 11.3062 5.88272 11.2007 5.77718C11.0952 5.67163 10.952 5.61234 10.8027 5.61234ZM9.39573 6.73794C9.39573 6.89335 9.26974 7.01934 9.11433 7.01934C8.95892 7.01934 8.83293 6.89335 8.83293 6.73794C8.83293 6.58253 8.95892 6.45654 9.11433 6.45654C9.26974 6.45654 9.39573 6.58253 9.39573 6.73794ZM10.5213 6.73794C10.5213 6.89335 10.3953 7.01934 10.2399 7.01934C10.0845 7.01934 9.95853 6.89335 9.95853 6.73794C9.95853 6.58253 10.0845 6.45654 10.2399 6.45654C10.3953 6.45654 10.5213 6.58253 10.5213 6.73794ZM10.8027 8.42634H6.30032C6.15106 8.42634 6.00791 8.48564 5.90236 8.59119C5.79681 8.69673 5.73752 8.83988 5.73752 8.98915V10.1148C5.73752 10.264 5.79681 10.4072 5.90236 10.5127C6.00791 10.6183 6.15106 10.6776 6.30032 10.6776H10.8027C10.952 10.6776 11.0952 10.6183 11.2007 10.5127C11.3062 10.4072 11.3655 10.264 11.3655 10.1148V8.98915C11.3655 8.83988 11.3062 8.69673 11.2007 8.59119C11.0952 8.48564 10.952 8.42634 10.8027 8.42634ZM9.39573 9.55195C9.39573 9.70736 9.26974 9.83335 9.11433 9.83335C8.95892 9.83335 8.83293 9.70736 8.83293 9.55195C8.83293 9.39654 8.95892 9.27055 9.11433 9.27055C9.26974 9.27055 9.39573 9.39654 9.39573 9.55195ZM10.5213 9.55195C10.5213 9.70736 10.3953 9.83335 10.2399 9.83335C10.0845 9.83335 9.95853 9.70736 9.95853 9.55195C9.95853 9.39654 10.0845 9.27055 10.2399 9.27055C10.3953 9.27055 10.5213 9.39654 10.5213 9.55195Z" fill="#F53838"/>
</g>
<defs>
<clipPath id="clip0_758_327">
<rect width="6.75362" height="6.75362" fill="white" transform="translate(5.17484 4.76813)"/>
</clipPath>
</defs>
</svg>
