<svg width="20" height="21" viewBox="0 0 20 21" fill="none" xmlns="http://www.w3.org/2000/svg">
<g filter="url(#filter0_d_781_129)">
<circle cx="10.0209" cy="6.6699" r="4.72752" fill="#F53838"/>
</g>
<path d="M10.0208 1.94238C7.40983 1.94238 5.29327 4.05894 5.29327 6.66992C5.29327 9.2809 7.40983 11.3975 10.0208 11.3975C12.6318 11.3975 14.7483 9.2809 14.7483 6.66992C14.7483 4.05894 12.6318 1.94238 10.0208 1.94238ZM11.9438 5.81502C11.9458 5.85541 11.9463 5.89579 11.9463 5.93518C11.9463 7.16631 11.0101 8.58507 9.2974 8.58507C8.7913 8.58591 8.29574 8.44055 7.87027 8.16648C7.94266 8.17535 8.01702 8.17879 8.09237 8.17879C8.52868 8.17879 8.93003 8.03057 9.24865 7.7804C9.05448 7.77659 8.86634 7.71229 8.71045 7.59648C8.55456 7.48066 8.43869 7.3191 8.37898 7.1343C8.51842 7.16082 8.66206 7.15526 8.79904 7.11805C8.58829 7.07544 8.39877 6.96124 8.26261 6.79484C8.12646 6.62843 8.05204 6.42006 8.05199 6.20505V6.19372C8.17756 6.26316 8.32136 6.30551 8.47402 6.31043C8.27645 6.17891 8.13659 5.97688 8.08304 5.74565C8.02949 5.51443 8.0663 5.27148 8.18594 5.0665C8.41983 5.35409 8.71151 5.58936 9.0421 5.75707C9.37268 5.92478 9.73481 6.0212 10.105 6.04007C10.058 5.84029 10.0782 5.63055 10.1626 5.44347C10.2471 5.25639 10.3909 5.10244 10.5719 5.00556C10.7529 4.90869 10.9607 4.8743 11.1632 4.90777C11.3658 4.94123 11.5515 5.04066 11.6917 5.19059C11.9001 5.14936 12.0999 5.07293 12.2826 4.96456C12.2132 5.18032 12.0678 5.36353 11.8734 5.48016C12.058 5.45792 12.2383 5.4083 12.4082 5.33291C12.2834 5.51999 12.1261 5.68326 11.9438 5.81502Z" fill="white"/>
<defs>
<filter id="filter0_d_781_129" x="0.228179" y="0.535378" width="19.5855" height="19.5855" filterUnits="userSpaceOnUse" color-interpolation-filters="sRGB">
<feFlood flood-opacity="0" result="BackgroundImageFix"/>
<feColorMatrix in="SourceAlpha" type="matrix" values="0 0 0 0 0 0 0 0 0 0 0 0 0 0 0 0 0 0 127 0" result="hardAlpha"/>
<feOffset dy="3.65821"/>
<feGaussianBlur stdDeviation="2.53261"/>
<feColorMatrix type="matrix" values="0 0 0 0 0.0658854 0 0 0 0 0.0730469 0 0 0 0 0.1375 0 0 0 0.08 0"/>
<feBlend mode="normal" in2="BackgroundImageFix" result="effect1_dropShadow_781_129"/>
<feBlend mode="normal" in="SourceGraphic" in2="effect1_dropShadow_781_129" result="shape"/>
</filter>
</defs>
</svg>
