<svg width="17" height="16" viewBox="0 0 17 16" fill="none" xmlns="http://www.w3.org/2000/svg">
<rect x="0.817841" y="0.406433" width="15.4771" height="15.4771" rx="7.73853" fill="#FFECEC"/>
<path fill-rule="evenodd" clip-rule="evenodd" d="M8.55637 7.80722C8.82504 7.80722 9.08271 7.70048 9.2727 7.5105C9.46268 7.32052 9.56941 7.06285 9.56941 6.79417C9.56941 6.5255 9.46268 6.26782 9.2727 6.07784C9.08271 5.88786 8.82504 5.78113 8.55637 5.78113C8.28769 5.78113 8.03002 5.88786 7.84003 6.07784C7.65005 6.26782 7.54332 6.5255 7.54332 6.79417C7.54332 7.06285 7.65005 7.32052 7.84003 7.5105C8.03002 7.70048 8.28769 7.80722 8.55637 7.80722ZM7.12084 10.8463C6.60818 10.8463 6.17634 10.4154 6.37253 9.94177C6.49132 9.65498 6.66543 9.39441 6.88493 9.17491C7.10442 8.95541 7.365 8.7813 7.65179 8.66251C7.93858 8.54372 8.24595 8.48258 8.55637 8.48258C8.86678 8.48258 9.17415 8.54372 9.46094 8.66251C9.74773 8.7813 10.0083 8.95541 10.2278 9.17491C10.4473 9.39441 10.6214 9.65498 10.7402 9.94177C10.9364 10.4154 10.5045 10.8463 9.99189 10.8463H7.12084Z" fill="#F53838"/>
</svg>
